#!OML:ASF F:\VICON\USERDATA\INSTALL\rory3\rory3.ASF
:FULLY-SPECIFIED
:DEGREES
1325
root 0.25387 17.9407 1.13058 0.710138 36.2589 -10.4356
lowerback 4.9608 3.73032 0.438586
upperback -0.954608 4.91312 -2.69176
thorax -3.48727 2.41166 -3.40395
lowerneck -25.3319 -11.6028 -11.7223
upperneck 5.35769 -12.8259 9.43171
head 6.94451 -5.59507 3.17395
rclavicle -7.79236e-014 -1.27222e-014
rhumerus 70.5332 -38.0601 -56.4162
rradius 34.7209
rwrist -6.58319
rhand -58.7553 -29.2604
rfingers 7.12502
rthumb -30.9661 -56.6684
lclavicle -7.79236e-014 -1.27222e-014
lhumerus -38.9578 7.74728 65.0902
lradius 51.2378
lwrist -4.5855
lhand -17.9243 23.7362
lfingers 7.12502
lthumb 8.34338 53.5515
rfemur -3.35308 -8.92483 21.9608
rtibia 20.2537
rfoot -19.7689 -18.756
rtoes -1.15286
lfemur -21.2189 -7.09938 -5.89143
ltibia 29.4061
lfoot -12.7596 -4.46773
ltoes -15.4225
1326
root 0.27135 17.9465 1.13004 1.00806 36.5221 -10.3519
lowerback 4.84606 3.81843 0.306744
upperback -1.04382 5.01445 -2.97567
thorax -3.49538 2.46251 -3.62677
lowerneck -25.2831 -11.658 -11.5586
upperneck 5.34159 -12.958 9.43806
head 6.936 -5.65476 3.13218
rclavicle -2.0276e-014 -2.54444e-014
rhumerus 70.5849 -37.8418 -56.4387
rradius 34.7268
rwrist -6.29041
rhand -58.8948 -29.4663
rfingers 7.12502
rthumb -31.0991 -56.8488
lclavicle -2.0276e-014 -2.54444e-014
lhumerus -38.8653 7.78025 64.8693
lradius 51.1912
lwrist -4.68256
lhand -17.7158 23.8028
lfingers 7.12502
lthumb 8.54459 53.6099
rfemur -3.53917 -9.2051 21.8373
rtibia 20.1648
rfoot -19.6426 -18.7268
rtoes -0.923643
lfemur -21.5428 -7.23633 -5.99884
ltibia 29.4021
lfoot -12.6914 -4.50081
ltoes -15.1907
1327
root 0.287039 17.9483 1.13255 0.728417 36.7454 -10.8468
lowerback 4.93984 3.91138 0.60422
upperback -1.06651 5.15266 -3.0875
thorax -3.52686 2.52384 -3.926
lowerneck -25.3074 -11.7711 -11.6326
upperneck 5.44149 -13.1237 9.64999
head 7.01195 -5.71469 3.18182
rclavicle -1.07344e-014 6.99722e-014
rhumerus 70.6527 -37.6368 -56.3437
rradius 34.7575
rwrist -6.36221
rhand -58.6468 -29.3971
rfingers 7.12502
rthumb -30.8627 -56.8246
lclavicle -1.07344e-014 6.99722e-014
lhumerus -38.7726 7.63927 64.7214
lradius 51.1577
lwrist -4.70769
lhand -17.654 23.6395
lfingers 7.12502
lthumb 8.60429 53.4441
rfemur -3.47606 -9.39716 22.2259
rtibia 20.1125
rfoot -19.5103 -18.8084
rtoes -1.01535
lfemur -21.629 -7.31939 -5.59474
ltibia 29.4277
lfoot -12.7097 -4.66258
ltoes -14.5678
1328
root 0.301357 17.9509 1.13272 0.453712 36.9789 -11.2686
lowerback 5.0731 4.00405 0.819217
upperback -1.05443 5.28657 -3.17834
thorax -3.55225 2.58514 -4.15929
lowerneck -25.3807 -11.942 -11.8149
upperneck 5.59768 -13.3299 9.85408
head 7.1241 -5.79454 3.235
rclavicle 9.66093e-014 -3.18055e-014
rhumerus 70.8796 -37.4365 -56.3147
rradius 34.7428
rwrist -6.54625
rhand -58.1346 -29.9567
rfingers 7.12502
rthumb -30.3742 -57.4755
lclavicle 9.66093e-014 -3.18055e-014
lhumerus -38.7448 7.42602 64.657
lradius 51.2572
lwrist -4.65636
lhand -17.8256 23.6315
lfingers 7.12502
lthumb 8.43866 53.4429
rfemur -3.33765 -9.45951 22.5426
rtibia 19.9316
rfoot -19.4707 -18.9732
rtoes -0.741226
lfemur -21.7349 -7.43886 -5.26148
ltibia 29.5514
lfoot -12.7516 -4.79696
ltoes -14.2237
1329
root 0.31437 17.9524 1.13374 0.417121 37.2872 -11.5451
lowerback 5.03373 4.03635 0.857728
upperback -1.05802 5.33016 -3.26277
thorax -3.51918 2.60627 -4.26795
lowerneck -25.496 -12.0249 -11.8681
upperneck 5.71076 -13.4311 9.93719
head 7.1994 -5.83094 3.247
rclavicle -7.03698e-014 3.97569e-014
rhumerus 71.2211 -37.1148 -56.4043
rradius 34.6713
rwrist -6.43021
rhand -58.0352 -30.3676
rfingers 7.12502
rthumb -30.2795 -57.9039
lclavicle -7.03698e-014 3.97569e-014
lhumerus -38.7809 7.46091 64.5442
lradius 51.343
lwrist -4.71548
lhand -17.9538 23.6943
lfingers 7.12502
lthumb 8.31492 53.5107
rfemur -3.2964 -9.50866 22.7705
rtibia 19.6027
rfoot -19.3569 -19.2558
rtoes -1.10321
lfemur -22.0681 -7.52625 -5.04486
ltibia 29.7496
lfoot -12.7617 -4.98515
ltoes -14.0969
1330
root 0.325748 17.9541 1.13733 0.20643 37.6112 -12.1324
lowerback 4.96228 4.07207 1.13547
upperback -1.04507 5.39543 -3.30097
thorax -3.4315 2.63498 -4.45908
lowerneck -25.6151 -12.0926 -11.8018
upperneck 5.74044 -13.5286 9.93552
head 7.23198 -5.87026 3.21599
rclavicle -2.3059e-014 7.95139e-015
rhumerus 71.5359 -36.8966 -56.4672
rradius 34.5834
rwrist -6.14855
rhand -58.1282 -30.3855
rfingers 7.12502
rthumb -30.3681 -57.9054
lclavicle -2.3059e-014 7.95139e-015
lhumerus -38.5985 7.65197 64.4103
lradius 51.2649
lwrist -4.83916
lhand -17.8857 23.7957
lfingers 7.12502
lthumb 8.38069 53.6094
rfemur -3.25826 -9.56441 23.2997
rtibia 19.2858
rfoot -19.3261 -19.529
rtoes -1.82662
lfemur -22.4177 -7.58531 -4.5375
ltibia 29.9405
lfoot -12.8015 -5.18118
ltoes -13.6135
1331
root 0.338041 17.954 1.14058 0.0104972 37.8285 -12.513
lowerback 5.08814 4.17374 1.26085
upperback -1.15718 5.5336 -3.41702
thorax -3.58425 2.69602 -4.67631
lowerneck -25.2866 -12.1747 -11.7551
upperneck 5.60318 -13.696 9.99956
head 7.15844 -5.95554 3.21447
rclavicle -3.33958e-014 3.33958e-014
rhumerus 71.4836 -36.6595 -56.3491
rradius 34.5249
rwrist -5.84125
rhand -58.4335 -29.9848
rfingers 7.12502
rthumb -30.6593 -57.4507
lclavicle -3.33958e-014 3.33958e-014
lhumerus -38.6112 7.70571 64.2001
lradius 51.1869
lwrist -4.90443
lhand -17.9691 23.9877
lfingers 7.12502
lthumb 8.30011 53.8047
rfemur -3.1517 -9.55471 23.6296
rtibia 19.074
rfoot -19.3428 -19.662
rtoes -2.33934
lfemur -22.5694 -7.64864 -4.2232
ltibia 30.0632
lfoot -12.8066 -5.34176
ltoes -13.3009
1332
root 0.352167 17.9537 1.14493 -0.228663 37.9983 -12.7442
lowerback 5.38509 4.26205 1.24199
upperback -1.35176 5.64156 -3.54786
thorax -3.93324 2.73888 -4.84896
lowerneck -24.707 -12.1742 -11.7262
upperneck 5.44581 -13.786 10.1031
head 7.03916 -6.01177 3.2504
rclavicle -7.95139e-016 9.54166e-015
rhumerus 71.197 -36.2183 -56.0739
rradius 34.4106
rwrist -5.27705
rhand -58.7027 -29.1015
rfingers 7.12502
rthumb -30.916 -56.5189
lclavicle -7.95139e-016 9.54166e-015
lhumerus -38.9778 7.50002 63.8798
lradius 51.2511
lwrist -4.76991
lhand -17.7774 23.7671
lfingers 7.12502
lthumb 8.48518 53.5767
rfemur -2.90133 -9.58823 23.7755
rtibia 18.8995
rfoot -19.2918 -19.7565
rtoes -2.5874
lfemur -22.5347 -7.56122 -4.10756
ltibia 30.1563
lfoot -12.8611 -5.57374
ltoes -13.491
1333
root 0.365098 17.9567 1.1484 -0.158833 38.2404 -12.698
lowerback 5.47776 4.31247 1.03831
upperback -1.43401 5.6863 -3.74135
thorax -4.06744 2.76065 -4.95477
lowerneck -24.4417 -12.2206 -11.7252
upperneck 5.29937 -13.8934 10.2513
head 6.97662 -6.06068 3.29173
rclavicle -5.1684e-014 4.77083e-015
rhumerus 71.306 -35.8388 -56.0446
rradius 34.2893
rwrist -4.5351
rhand -58.6189 -30.0593
rfingers 7.12502
rthumb -30.8361 -57.4919
lclavicle -5.1684e-014 4.77083e-015
lhumerus -39.2767 7.21792 63.6328
lradius 51.513
lwrist -4.5546
lhand -17.4149 23.4337
lfingers 7.12502
lthumb 8.83495 53.2287
rfemur -2.8215 -9.68704 23.6848
rtibia 18.8205
rfoot -19.4301 -19.6494
rtoes -1.5385
lfemur -22.6424 -7.5484 -4.23493
ltibia 30.1689
lfoot -12.8749 -5.69314
ltoes -14.0347
1334
root 0.375947 17.9596 1.14977 -0.111106 38.5355 -12.7524
lowerback 5.5569 4.34741 0.952471
upperback -1.37095 5.72341 -3.86632
thorax -4.03879 2.78174 -5.0437
lowerneck -24.7116 -12.3835 -11.8149
upperneck 5.29503 -14.0558 10.3238
head 7.04292 -6.12144 3.29187
rclavicle -1.15295e-014 7.95139e-015
rhumerus 71.7415 -35.5889 -56.0718
rradius 34.1611
rwrist -3.49211
rhand -58.0752 -32.5859
rfingers 7.12502
rthumb -30.3176 -60.1152
lclavicle -1.15295e-014 7.95139e-015
lhumerus -39.1685 7.35338 63.6003
lradius 51.6011
lwrist -4.65686
lhand -17.4403 23.6059
lfingers 7.12502
lthumb 8.81046 53.402
rfemur -2.83661 -9.8296 23.704
rtibia 18.772
rfoot -19.5218 -19.6306
rtoes -0.377986
lfemur -22.8067 -7.66777 -4.24075
ltibia 30.1517
lfoot -12.8575 -5.76004
ltoes -14.3291
1335
root 0.389861 17.9628 1.15158 -0.0191753 38.8204 -12.8536
lowerback 5.48551 4.36465 0.933702
upperback -1.30074 5.74414 -3.98128
thorax -3.91378 2.79573 -5.14329
lowerneck -24.8882 -12.501 -11.8881
upperneck 5.2171 -14.1729 10.4286
head 7.06884 -6.16169 3.31212
rclavicle -1.24042e-013 -7.95139e-015
rhumerus 72.2178 -35.3153 -56.0648
rradius 34.0127
rwrist -2.34099
rhand -57.4097 -34.0012
rfingers 7.12502
rthumb -29.6826 -61.6454
lclavicle -1.24042e-013 -7.95139e-015
lhumerus -38.9393 7.70094 63.5668
lradius 51.4729
lwrist -4.85573
lhand -17.6709 24.0285
lfingers 7.12502
lthumb 8.58793 53.8339
rfemur -2.96891 -9.97022 23.7639
rtibia 18.6887
rfoot -19.4243 -19.8205
rtoes -0.0192262
lfemur -23.034 -7.77693 -4.1897
ltibia 30.1456
lfoot -12.8302 -5.85276
ltoes -14.2364
1336
root 0.404448 17.9672 1.15308 -0.0439974 39.1246 -13.1698
lowerback 5.40686 4.37715 1.08886
upperback -1.34327 5.76906 -4.08631
thorax -3.88567 2.80437 -5.33624
lowerneck -24.8977 -12.5735 -11.8962
upperneck 5.30048 -14.2866 10.5031
head 7.11736 -6.20805 3.31584
rclavicle -2.82274e-014 4.77083e-014
rhumerus 72.3805 -34.9817 -55.9357
rradius 33.9127
rwrist -1.39907
rhand -57.3917 -33.9534
rfingers 7.12502
rthumb -29.6654 -61.6007
lclavicle -2.82274e-014 4.77083e-014
lhumerus -38.9718 7.74136 63.4554
lradius 51.4908
lwrist -4.89806
lhand -17.8117 24.283
lfingers 7.12502
lthumb 8.45205 54.0939
rfemur -3.06284 -10.2273 23.9946
rtibia 18.5126
rfoot -19.1565 -20.0138
rtoes -1.11784
lfemur -23.3392 -7.749 -3.97125
ltibia 30.2074
lfoot -12.8378 -6.11702
ltoes -14.241
1337
root 0.415739 17.9679 1.15881 -0.0909182 39.3796 -13.4444
lowerback 5.33859 4.42133 1.21244
upperback -1.28345 5.83503 -4.23223
thorax -3.7514 2.83805 -5.55156
lowerneck -25.2595 -12.7566 -11.9252
upperneck 5.56942 -14.5281 10.6727
head 7.30284 -6.29052 3.3154
rclavicle 1.4392e-013 -4.77083e-014
rhumerus 72.5726 -34.813 -55.7371
rradius 33.845
rwrist -0.782338
rhand -57.5588 -34.0234
rfingers 7.12502
rthumb -29.8249 -61.6422
lclavicle 1.4392e-013 -4.77083e-014
lhumerus -38.8308 7.82168 63.3078
lradius 51.5573
lwrist -5.05859
lhand -17.7344 24.1132
lfingers 7.12502
lthumb 8.52667 53.921
rfemur -3.07732 -10.3951 24.2131
rtibia 18.3346
rfoot -19.1062 -20.0744
rtoes -1.35637
lfemur -23.5793 -7.72233 -3.76988
ltibia 30.2768
lfoot -12.848 -6.3277
ltoes -14.3152
1338
root 0.424049 17.967 1.16148 -0.183464 39.6066 -13.6514
lowerback 5.43912 4.44082 1.23268
upperback -1.28649 5.85761 -4.37916
thorax -3.79174 2.84713 -5.72847
lowerneck -25.1803 -12.8286 -11.971
upperneck 5.45443 -14.6693 11.0417
head 7.30769 -6.32916 3.42179
rclavicle -1.31198e-014 1.08139e-013
rhumerus 72.6502 -34.5065 -55.555
rradius 33.8473
rwrist -0.278052
rhand -57.5303 -33.4439
rfingers 7.12502
rthumb -29.7977 -61.0676
lclavicle -1.31198e-014 1.08139e-013
lhumerus -38.78 8.05869 63.0319
lradius 51.4978
lwrist -5.23422
lhand -17.5646 23.7631
lfingers 7.12502
lthumb 8.69055 53.5642
rfemur -3.00312 -10.4061 24.384
rtibia 18.1566
rfoot -19.2518 -20.1646
rtoes -0.754943
lfemur -23.7406 -7.65984 -3.63752
ltibia 30.3457
lfoot -12.854 -6.58966
ltoes -14.422
